<?xml version="1.0" encoding="UTF-8"?>
<svg width="454px" height="354px" viewBox="0 0 454 354" version="1.1" xmlns="http://www.w3.org/2000/svg" xmlns:xlink="http://www.w3.org/1999/xlink">
    <title>Eventformpitch</title>
    <g id="Page-1" stroke="none" stroke-width="1" fill="none" fill-rule="evenodd">
        <g id="Desktop" transform="translate(-473.000000, -223.000000)">
            <g id="Eventformpitch" transform="translate(473.000000, 223.000000)">
                <g id="Green-field">
                    <rect id="Rectangle" fill="#FFFFFF" x="146" y="271" width="150" height="78"></rect>
                    <rect id="grass" fill="#BDE9AF" x="0" y="0" width="454" height="354" rx="5"></rect>
                    <path d="M444,5.5 C445.242641,5.5 446.367641,6.00367966 447.181981,6.81801948 C447.99632,7.63235931 448.5,8.75735931 448.5,10 L448.5,10 L448.5,344 C448.5,345.242641 447.99632,346.367641 447.181981,347.181981 C446.367641,347.99632 445.242641,348.5 444.000003,348.5 L444.000003,348.5 L284.497863,348.500287 C284.636267,332.247104 278.030375,317.535873 267.310413,306.996071 C256.933647,296.793698 242.701804,290.5 227,290.5 C211.298196,290.5 197.066353,296.793698 186.689587,306.996071 C175.969625,317.535873 169.363733,332.247104 169.502137,348.500287 L169.502137,348.500287 L10,348.5 C8.75735931,348.5 7.63235931,347.99632 6.81801948,347.181981 C6.00367966,346.367641 5.5,345.242641 5.5,344 L5.5,344 L5.5,10 C5.5,8.75735931 6.00367966,7.63235931 6.81801948,6.81801948 C7.63235931,6.00367966 8.75735931,5.5 10,5.5 L10,5.5 Z" id="Combined-Shape" stroke="#F7F7F7" stroke-width="3" fill="#BDE9AF"></path>
                    <line x1="150.5" y1="348.5" x2="303.5" y2="348.5" id="Line-2" stroke="#F7F7F7" stroke-width="3" fill="#D8D8D8" stroke-linecap="square"></line>
                    <path d="M359.5,5.5 L359.5,111 C359.5,112.242641 358.99632,113.367641 358.181981,114.181981 C357.367641,114.99632 356.242641,115.5 355.00003,115.5 L355.00003,115.5 L284.567394,115.501385 C280.233976,126.895781 272.55704,136.642425 262.734507,143.541596 C252.904122,150.446282 240.925512,154.5 228,154.5 C215.074488,154.5 203.095878,150.446282 193.265493,143.541596 C183.442961,136.642425 175.766025,126.895781 171.432606,115.501386 L171.432606,115.501386 L100,115.5 C98.7573593,115.5 97.6323593,114.99632 96.8180195,114.181981 C96.0036797,113.367641 95.5,112.242641 95.5,111 L95.5,111 L95.5,5.5 L359.5,5.5 Z" id="Combined-Shape" stroke="#F7F7F7" stroke-width="3" fill="#BDE9AF"></path>
                    <path d="M287.5,5.5 L287.5,40 C287.5,41.2426407 286.99632,42.3676407 286.181981,43.1819805 C285.367641,43.9963203 284.242641,44.5 283,44.5 L283,44.5 L171,44.5 C169.757359,44.5 168.632359,43.9963203 167.818019,43.1819805 C167.00368,42.3676407 166.5,41.2426407 166.5,40 L166.5,40 L166.5,5.5 L287.5,5.5 Z" id="Rectangle" stroke="#F7F7F7" stroke-width="3" fill="#BDE9AF"></path>
                    <line x1="204" y1="6" x2="204" y2="8" id="Line-5" stroke="#F7F7F7" stroke-width="3" stroke-linecap="round"></line>
                    <line x1="250" y1="6" x2="250" y2="8" id="Line-5" stroke="#F7F7F7" stroke-width="3" stroke-linecap="round"></line>
                    <circle id="penalty-point" fill="#F7F7F7" cx="227.5" cy="91.5" r="2.5"></circle>
                </g>
                <text id="Click-on-the-pitch-t" font-family="Poppins-SemiBold, Poppins" font-size="13" font-weight="500" letter-spacing="-0.65" fill="#A2C896">
                    <tspan x="175.676" y="215">Click on the pitch </tspan>
                    <tspan x="120.6795" y="234">to locate the last touch of the scorer</tspan>
                </text>
            </g>
        </g>
    </g>
</svg>