<?xml version="1.0" encoding="UTF-8"?>
<svg width="266px" height="98px" viewBox="0 0 266 98" version="1.1" xmlns="http://www.w3.org/2000/svg" xmlns:xlink="http://www.w3.org/1999/xlink">
    <title>eventformcage</title>
    <g id="Page-1" stroke="none" stroke-width="1" fill="none" fill-rule="evenodd">
        <g id="Desktop" transform="translate(-567.000000, -622.000000)">
            <g id="eventformcage" transform="translate(569.000000, 624.000000)">
                <g id="Cage-2">
                    <g id="Filet" transform="translate(21.000000, 1.000000)" stroke-linecap="square">
                        <line x1="197.262963" y1="13.9642857" x2="22.1" y2="13.9642857" id="Line-4" stroke="#F2F2F2"></line>
                        <line x1="210.359259" y1="7.39285714" x2="10.6407407" y2="7.39285714" id="Line-4" stroke="#F2F2F2"></line>
                        <line x1="197.262963" y1="30.3928571" x2="22.1" y2="30.3928571" id="Line-4" stroke="#F2F2F2"></line>
                        <line x1="197.262963" y1="46.8214286" x2="22.1" y2="46.8214286" id="Line-4" stroke="#F2F2F2"></line>
                        <line x1="197.262963" y1="63.25" x2="22.1" y2="63.25" id="Line-4" stroke="#F2F2F2"></line>
                        <line x1="59.7518519" y1="13.9642857" x2="59.7518519" y2="79.6785714" id="Line-4" stroke="#F2F2F2"></line>
                        <line x1="128.507407" y1="13.9642857" x2="128.507407" y2="79.6785714" id="Line-4" stroke="#F2F2F2"></line>
                        <line x1="94.1296296" y1="13.9642857" x2="94.1296296" y2="79.6785714" id="Line-4" stroke="#F2F2F2"></line>
                        <line x1="162.885185" y1="13.9642857" x2="162.885185" y2="79.6785714" id="Line-4" stroke="#F2F2F2"></line>
                        <line x1="180.892593" y1="13.9642857" x2="180.892593" y2="79.6785714" id="Line-4" stroke="#F2F2F2"></line>
                        <line x1="146.514815" y1="13.9642857" x2="146.514815" y2="79.6785714" id="Line-4" stroke="#F2F2F2"></line>
                        <line x1="112.137037" y1="13.9642857" x2="112.137037" y2="79.6785714" id="Line-4" stroke="#F2F2F2"></line>
                        <line x1="77.7592593" y1="13.9642857" x2="77.7592593" y2="79.6785714" id="Line-4" stroke="#F2F2F2"></line>
                        <line x1="41.7444444" y1="13.9642857" x2="41.7444444" y2="79.6785714" id="Line-4" stroke="#F2F2F2"></line>
                        <line x1="10.6407407" y1="9.03571429" x2="10.6407407" y2="86.25" id="Line-4" stroke="#F2F2F2"></line>
                        <line x1="210.359259" y1="9.03571429" x2="210.359259" y2="86.25" id="Line-4" stroke="#F2F2F2"></line>
                        <line x1="171.07037" y1="0.821428571" x2="162.885185" y2="13.9642857" id="Line-4" stroke="#F2F2F2"></line>
                        <line x1="189.077778" y1="2.46428571" x2="180.892593" y2="13.9642857" id="Line-4" stroke="#F2F2F2"></line>
                        <line x1="131.781481" y1="2.46428571" x2="128.507407" y2="13.9642857" id="Line-4" stroke="#F2F2F2"></line>
                        <line x1="151.425926" y1="0.821428571" x2="146.514815" y2="13.9642857" id="Line-4" stroke="#F2F2F2"></line>
                        <line x1="112.137037" y1="0.821428571" x2="112.137037" y2="13.9642857" id="Line-4" stroke="#F2F2F2"></line>
                        <line x1="59.7518519" y1="2.46428571" x2="51.5666667" y2="13.9642857" id="Line-4" stroke="#F2F2F2" transform="translate(55.659259, 8.214286) scale(-1, 1) translate(-55.659259, -8.214286) "></line>
                        <line x1="77.7592593" y1="2.46428571" x2="72.8481481" y2="13.9642857" id="Line-4" stroke="#F2F2F2" transform="translate(75.303704, 8.214286) scale(-1, 1) translate(-75.303704, -8.214286) "></line>
                        <line x1="41.7444444" y1="0.821428571" x2="28.6481481" y2="13.9642857" id="Line-4" stroke="#F2F2F2" transform="translate(35.196296, 7.392857) scale(-1, 1) translate(-35.196296, -7.392857) "></line>
                        <line x1="94.1296296" y1="2.46428571" x2="90.8555556" y2="13.9642857" id="Line-4" stroke="#F2F2F2" transform="translate(92.492593, 8.214286) scale(-1, 1) translate(-92.492593, -8.214286) "></line>
                        <line x1="22.1" y1="63.25" x2="0.818518519" y2="71.4642857" id="Line-4" stroke="#F2F2F2"></line>
                        <line x1="22.1" y1="46.8214286" x2="0.818518519" y2="50.1071429" id="Line-4" stroke="#F2F2F2"></line>
                        <line x1="22.1" y1="30.3928571" x2="0.818518519" y2="27.1071429" id="Line-4" stroke="#F2F2F2"></line>
                        <line x1="220.181481" y1="63.25" x2="198.9" y2="71.4642857" id="Line-4" stroke="#F2F2F2" transform="translate(209.540741, 67.357143) scale(-1, 1) translate(-209.540741, -67.357143) "></line>
                        <line x1="220.181481" y1="46.8214286" x2="198.9" y2="50.1071429" id="Line-4" stroke="#F2F2F2" transform="translate(209.540741, 48.464286) scale(-1, 1) translate(-209.540741, -48.464286) "></line>
                        <line x1="220.181481" y1="30.3928571" x2="198.9" y2="27.1071429" id="Line-4" stroke="#F2F2F2" transform="translate(209.540741, 28.750000) scale(-1, 1) translate(-209.540741, -28.750000) "></line>
                        <g id="Group" transform="translate(0.000000, 1.642857)" stroke="#D9D9D9">
                            <line x1="197.262963" y1="78.0357143" x2="22.1" y2="78.0357143" id="Line-4"></line>
                            <line x1="22.1" y1="12.3214286" x2="22.1" y2="78.0357143" id="Line-4"></line>
                            <line x1="197.262963" y1="12.3214286" x2="197.262963" y2="78.0357143" id="Line-4"></line>
                            <line x1="197.262963" y1="12.3214286" x2="22.1" y2="12.3214286" id="Line-4"></line>
                            <line x1="22.1" y1="78.0357143" x2="0.818518519" y2="89.5357143" id="Line-4"></line>
                            <line x1="22.1" y1="12.3214286" x2="0.818518519" y2="0.821428571" id="Line-4"></line>
                            <line x1="220.181481" y1="78.0357143" x2="198.9" y2="89.5357143" id="Line-4" transform="translate(209.540741, 83.785714) scale(-1, 1) translate(-209.540741, -83.785714) "></line>
                            <line x1="221.5" y1="11.8571429" x2="197.5" y2="0.857142857" id="Line-4" transform="translate(209.500000, 6.000000) scale(-1, 1) translate(-209.500000, -6.000000) "></line>
                        </g>
                    </g>
                    <line x1="-3.95484885e-17" y1="94" x2="262" y2="94" id="Line-3" stroke="#F7F7F7" stroke-width="3" stroke-linecap="square"></line>
                    <line x1="18.5" y1="92.5" x2="18.5" y2="0.5" id="Line-5" stroke="#DDDDDD" stroke-width="5" fill="#D8D8D8" stroke-linecap="round" stroke-linejoin="round"></line>
                    <line x1="244.5" y1="0.5" x2="18.5" y2="0.5" id="Line-5" stroke="#DDDDDD" stroke-width="5" fill="#D8D8D8" stroke-linecap="square"></line>
                    <line x1="244.5" y1="92.5" x2="244.5" y2="0.5" id="Line-5" stroke="#DDDDDD" stroke-width="5" fill="#D8D8D8" stroke-linecap="round"></line>
                </g>
                <text id="Click-to-locate-the" font-family="Poppins-SemiBold, Poppins" font-size="13" font-weight="500" letter-spacing="-0.65" fill="#DDDDDD">
                    <tspan x="88.9905" y="41">Click to locate</tspan>
                    <tspan x="74.385" y="60">the ball in the cage</tspan>
                </text>
            </g>
        </g>
    </g>
</svg>