<?xml version="1.0" encoding="UTF-8"?>
<svg width="454px" height="354px" viewBox="0 0 454 354" version="1.1" xmlns="http://www.w3.org/2000/svg" xmlns:xlink="http://www.w3.org/1999/xlink">
    <title>Eventformpitch</title>
    <g id="Page-1" stroke="none" stroke-width="1" fill="none" fill-rule="evenodd">
        <g id="Desktop" transform="translate(-936.000000, -223.000000)">
            <g id="Eventformpitch" transform="translate(936.000000, 223.000000)">
                <g id="Green-field">
                    <rect id="green-patch-for-central-round" fill="#FFFFFF" x="146" y="271" width="150" height="83"></rect>
                    <rect id="grass" fill="#BDE9AF" x="0" y="0" width="454" height="354" rx="5"></rect>
                    <g id="Top-half-pitch-" transform="translate(7.000000, 6.000000)">
                        <path d="M437,-0.5 C438.242641,-0.5 439.367641,0.00367965644 440.181981,0.818019485 C440.99632,1.63235931 441.5,2.75735931 441.5,4 L441.5,4 L441.5,342.499997 L277.497863,342.500287 C277.636267,326.247104 271.030375,311.535873 260.310413,300.996071 C249.933647,290.793698 235.701804,284.5 220,284.5 C204.298196,284.5 190.066353,290.793698 179.689587,300.996071 C168.969625,311.535873 162.363733,326.247104 162.502137,342.500287 L162.502137,342.500287 L-1.5,342.499997 L-1.5,4 C-1.5,2.75735931 -0.996320344,1.63235931 -0.181980515,0.818019485 C0.632359313,0.00367965644 1.75735931,-0.5 3,-0.5 L3,-0.5 Z" id="Layout-half-pitch-" stroke="#F7F7F7" stroke-width="3" fill="#BDE9AF"></path>
                        <line x1="143.5" y1="342.5" x2="296.5" y2="342.5" id="Complément-ligne-médiane" stroke="#F7F7F7" stroke-width="3" fill="#D8D8D8" stroke-linecap="square"></line>
                        <path d="M352.5,-0.5 L352.5,105 C352.5,106.242641 351.99632,107.367641 351.181981,108.181981 C350.367641,108.99632 349.242641,109.5 348.00003,109.5 L348.00003,109.5 L277.567394,109.501385 C273.233976,120.895781 265.55704,130.642425 255.734507,137.541596 C245.904122,144.446282 233.925512,148.5 221,148.5 C208.074488,148.5 196.095878,144.446282 186.265493,137.541596 C176.442961,130.642425 168.766025,120.895781 164.432606,109.501386 L164.432606,109.501386 L93,109.5 C91.7573593,109.5 90.6323593,108.99632 89.8180195,108.181981 C89.0036797,107.367641 88.5,106.242641 88.5,105 L88.5,105 L88.5,-0.5 L352.5,-0.5 Z" id="surface-rep" stroke="#F7F7F7" stroke-width="3" fill="#BDE9AF"></path>
                        <path d="M280.5,-0.5 L280.5,34 C280.5,35.2426407 279.99632,36.3676407 279.181981,37.1819805 C278.367641,37.9963203 277.242641,38.5 276,38.5 L276,38.5 L164,38.5 C162.757359,38.5 161.632359,37.9963203 160.818019,37.1819805 C160.00368,36.3676407 159.5,35.2426407 159.5,34 L159.5,34 L159.5,-0.5 L280.5,-0.5 Z" id="surface-gardien" stroke="#F7F7F7" stroke-width="3" fill="#BDE9AF"></path>
                        <line x1="197" y1="-1.22741323e-14" x2="197" y2="2" id="poteau-gauche" stroke="#F7F7F7" stroke-width="3" stroke-linecap="round"></line>
                        <line x1="243" y1="-1.22741323e-14" x2="243" y2="2" id="poteau-droit" stroke="#F7F7F7" stroke-width="3" stroke-linecap="round"></line>
                        <circle id="penalty-point" fill="#F7F7F7" cx="220.5" cy="85.5" r="2.5"></circle>
                    </g>
                </g>
                <text id="Click-on-the-pitch-t" font-family="Poppins-SemiBold, Poppins" font-size="13" font-weight="500" letter-spacing="-0.65" fill="#A2C896">
                    <tspan x="175.676" y="215">Click on the pitch </tspan>
                    <tspan x="120.6795" y="234">to locate the last touch of the scorer</tspan>
                </text>
            </g>
        </g>
    </g>
</svg>