<?xml version="1.0" encoding="UTF-8"?>
<svg width="164px" height="61px" viewBox="0 0 164 61" version="1.1" xmlns="http://www.w3.org/2000/svg" xmlns:xlink="http://www.w3.org/1999/xlink">
    <title>Cage 2</title>
    <g id="Page-1" stroke="none" stroke-width="1" fill="none" fill-rule="evenodd">
        <g id="Desktop" transform="translate(-990.000000, -510.000000)">
            <g id="Cage-2" transform="translate(992.000000, 512.000000)">
                <g id="Filet" transform="translate(13.000000, 0.000000)" stroke="#F2F2F2" stroke-linecap="square">
                    <line x1="120.5" y1="8.5" x2="13.5" y2="8.5" id="Line-4"></line>
                    <line x1="128.5" y1="4.5" x2="6.5" y2="4.5" id="Line-4"></line>
                    <line x1="120.5" y1="18.5" x2="13.5" y2="18.5" id="Line-4"></line>
                    <line x1="120.5" y1="28.5" x2="13.5" y2="28.5" id="Line-4"></line>
                    <line x1="120.5" y1="38.5" x2="13.5" y2="38.5" id="Line-4"></line>
                    <line x1="120.5" y1="48.5" x2="13.5" y2="48.5" id="Line-4"></line>
                    <line x1="13.5" y1="8.5" x2="13.5" y2="48.5" id="Line-4"></line>
                    <line x1="36.5" y1="8.5" x2="36.5" y2="48.5" id="Line-4"></line>
                    <line x1="78.5" y1="8.5" x2="78.5" y2="48.5" id="Line-4"></line>
                    <line x1="57.5" y1="8.5" x2="57.5" y2="48.5" id="Line-4"></line>
                    <line x1="99.5" y1="8.5" x2="99.5" y2="48.5" id="Line-4"></line>
                    <line x1="120.5" y1="8.5" x2="120.5" y2="48.5" id="Line-4"></line>
                    <line x1="110.5" y1="8.5" x2="110.5" y2="48.5" id="Line-4"></line>
                    <line x1="89.5" y1="8.5" x2="89.5" y2="48.5" id="Line-4"></line>
                    <line x1="68.5" y1="8.5" x2="68.5" y2="48.5" id="Line-4"></line>
                    <line x1="47.5" y1="8.5" x2="47.5" y2="48.5" id="Line-4"></line>
                    <line x1="25.5" y1="8.5" x2="25.5" y2="48.5" id="Line-4"></line>
                    <line x1="6.5" y1="5.5" x2="6.5" y2="52.5" id="Line-4"></line>
                    <line x1="128.5" y1="5.5" x2="128.5" y2="52.5" id="Line-4"></line>
                    <line x1="104.5" y1="0.5" x2="99.5" y2="8.5" id="Line-4"></line>
                    <line x1="115.5" y1="1.5" x2="110.5" y2="8.5" id="Line-4"></line>
                    <line x1="80.5" y1="1.5" x2="78.5" y2="8.5" id="Line-4"></line>
                    <line x1="92.5" y1="0.5" x2="89.5" y2="8.5" id="Line-4"></line>
                    <line x1="68.5" y1="0.5" x2="68.5" y2="8.5" id="Line-4"></line>
                    <line x1="36.5" y1="1.5" x2="31.5" y2="8.5" id="Line-4" transform="translate(34.000000, 5.000000) scale(-1, 1) translate(-34.000000, -5.000000) "></line>
                    <line x1="47.5" y1="1.5" x2="44.5" y2="8.5" id="Line-4" transform="translate(46.000000, 5.000000) scale(-1, 1) translate(-46.000000, -5.000000) "></line>
                    <line x1="25.5" y1="0.5" x2="17.5" y2="8.5" id="Line-4" transform="translate(21.500000, 4.500000) scale(-1, 1) translate(-21.500000, -4.500000) "></line>
                    <line x1="120.5" y1="8.5" x2="13.5" y2="8.5" id="Line-4"></line>
                    <line x1="57.5" y1="1.5" x2="55.5" y2="8.5" id="Line-4" transform="translate(56.500000, 5.000000) scale(-1, 1) translate(-56.500000, -5.000000) "></line>
                    <line x1="13.5" y1="48.5" x2="0.5" y2="55.5" id="Line-4"></line>
                    <line x1="13.5" y1="38.5" x2="0.5" y2="43.5" id="Line-4"></line>
                    <line x1="13.5" y1="28.5" x2="0.5" y2="30.5" id="Line-4"></line>
                    <line x1="13.5" y1="18.5" x2="0.5" y2="16.5" id="Line-4"></line>
                    <line x1="13.5" y1="8.5" x2="0.5" y2="1.5" id="Line-4"></line>
                    <line x1="134.5" y1="48.5" x2="121.5" y2="55.5" id="Line-4" transform="translate(128.000000, 52.000000) scale(-1, 1) translate(-128.000000, -52.000000) "></line>
                    <line x1="134.5" y1="38.5" x2="121.5" y2="43.5" id="Line-4" transform="translate(128.000000, 41.000000) scale(-1, 1) translate(-128.000000, -41.000000) "></line>
                    <line x1="134.5" y1="28.5" x2="121.5" y2="30.5" id="Line-4" transform="translate(128.000000, 29.500000) scale(-1, 1) translate(-128.000000, -29.500000) "></line>
                    <line x1="134.5" y1="18.5" x2="121.5" y2="16.5" id="Line-4" transform="translate(128.000000, 17.500000) scale(-1, 1) translate(-128.000000, -17.500000) "></line>
                    <line x1="134.5" y1="8.5" x2="121.5" y2="1.5" id="Line-4" transform="translate(128.000000, 5.000000) scale(-1, 1) translate(-128.000000, -5.000000) "></line>
                </g>
                <rect id="Rectangle" stroke="#F7F7F7" stroke-width="3" x="11.5" y="-0.5" width="138" height="57.7641509"></rect>
                <line x1="-2.41517487e-17" y1="57.5" x2="160" y2="57.5" id="Line-3" stroke="#F7F7F7" stroke-width="3" stroke-linecap="square"></line>
            </g>
        </g>
    </g>
</svg>