<?xml version="1.0" encoding="UTF-8"?>
<svg width="446px" height="291px" viewBox="0 0 446 291" version="1.1" xmlns="http://www.w3.org/2000/svg" xmlns:xlink="http://www.w3.org/1999/xlink">
    <title>Group 4</title>
    <g id="Page-1" stroke="none" stroke-width="1" fill="none" fill-rule="evenodd">
        <g id="Desktop" transform="translate(-479.000000, -309.000000)">
            <g id="Group-4" transform="translate(482.000000, 312.000000)">
                <rect id="Rectangle" fill="#FFFFFF" x="138" y="207" width="150" height="78"></rect>
                <path d="M437,-1.5 C438.242641,-1.5 439.367641,-0.996320344 440.181981,-0.181980515 C440.99632,0.632359313 441.5,1.75735931 441.5,3 L441.5,3 L441.5,282 C441.5,283.242641 440.99632,284.367641 440.181981,285.181981 C439.367641,285.99632 438.242641,286.5 437.000003,286.5 L437.000003,286.5 L273.497785,286.500303 C273.636308,270.79955 267.254367,256.588424 256.896467,246.410653 C246.881649,236.569998 233.149681,230.5 218,230.5 C202.850319,230.5 189.118351,236.569998 179.103533,246.410653 C168.745633,256.588424 162.363692,270.79955 162.502215,286.500303 L162.502215,286.500303 L3,286.5 C1.75735931,286.5 0.632359313,285.99632 -0.181980515,285.181981 C-0.996320344,284.367641 -1.5,283.242641 -1.5,282 L-1.5,282 L-1.5,3 C-1.5,1.75735931 -0.996320344,0.632359313 -0.181980515,-0.181980515 C0.632359313,-0.996320344 1.75735931,-1.5 3,-1.5 L3,-1.5 L437,-1.5 Z" id="Combined-Shape" stroke="#F7F7F7" stroke-width="3" fill="#FFFFFF"></path>
                <line x1="143.5" y1="286.5" x2="296.5" y2="286.5" id="Line-2" stroke="#F7F7F7" stroke-width="3" fill="#D8D8D8" stroke-linecap="square"></line>
                <path d="M328.5,-1.5 L328.5,102 C328.5,103.242641 327.99632,104.367641 327.181981,105.181981 C326.367641,105.99632 325.242641,106.5 324.000029,106.5 L324.000029,106.5 L272.421864,106.501 C268.14001,117.33018 260.719651,126.576145 251.281693,133.116336 C241.833893,139.663348 230.365048,143.5 218,143.5 C205.634952,143.5 194.166107,139.663348 184.718307,133.116336 C175.280349,126.576145 167.85999,117.33018 163.578136,106.500999 L163.578136,106.500999 L113,106.5 C111.757359,106.5 110.632359,105.99632 109.818019,105.181981 C109.00368,104.367641 108.5,103.242641 108.5,102 L108.5,102 L108.5,-1.5 L328.5,-1.5 Z" id="Combined-Shape" stroke="#F7F7F7" stroke-width="3" fill="#FFFFFF"></path>
                <path d="M272.5,-1.5 L272.5,40 C272.5,41.2426407 271.99632,42.3676407 271.181981,43.1819805 C270.367641,43.9963203 269.242641,44.5 268,44.5 L268,44.5 L168,44.5 C166.757359,44.5 165.632359,43.9963203 164.818019,43.1819805 C164.00368,42.3676407 163.5,41.2426407 163.5,40 L163.5,40 L163.5,-1.5 L272.5,-1.5 Z" id="Rectangle" stroke="#F7F7F7" stroke-width="3" fill="#FFFFFF"></path>
                <circle id="penalty-point" fill="#F7F7F7" cx="218.5" cy="85.5" r="2.5"></circle>
            </g>
        </g>
    </g>
</svg>