<?xml version="1.0" encoding="UTF-8"?>
<svg width="72px" height="54px" viewBox="0 0 72 54" version="1.1" xmlns="http://www.w3.org/2000/svg" xmlns:xlink="http://www.w3.org/1999/xlink">
    <title>Group 7</title>
    <g id="Page-1" stroke="none" stroke-width="1" fill="none" fill-rule="evenodd" opacity="0.324521019">
        <g id="Desktop" transform="translate(-664.000000, -724.000000)">
            <g id="Group-7" transform="translate(664.000000, 724.808594)">
                <text id="copyright-©-2022" font-family="Mukta-Regular, Mukta" font-size="10" font-weight="normal" fill="#AEAEAE">
                    <tspan x="0" y="48.1914062">copyright © 2022</tspan>
                </text>
                <path d="M48.6796875,2 C51.4335938,2 51.4335938,2 53.5722656,3.25976562 C55.7109375,4.51953125 55.7109375,4.51953125 56.8828125,6.86328125 C58.0546875,9.20703125 58.0546875,9.20703125 58.0546875,12.4882812 L58.0546875,12.4882812 L58.171875,18.5820312 L58.1742116,19.1147775 C57.3483558,19.2909268 57.3483558,19.2909268 56.5957031,19.7285156 C55.3359375,20.4609375 55.3359375,20.4609375 54.6035156,21.6914062 C53.8710938,22.921875 53.8710938,22.921875 53.8710938,24.4453125 C53.8710938,26.6485639 53.8710938,26.6485639 55.4488588,28.1920227 L47.5664062,28.1914062 L47.390625,25.4960938 L50.4375,24.5 L50.4697864,24.3403619 C50.563058,23.8345424 50.563058,23.8345424 50.6132812,23.0058594 C50.671875,22.0390625 50.671875,22.0390625 50.7011719,20.8671875 C50.7304688,19.6953125 50.7304688,19.6953125 50.7304688,18.640625 L50.7304688,18.640625 L50.6132812,13.6601562 L50.6094675,13.3141411 C50.5637019,11.2713341 50.5637019,11.2713341 49.96875,10.0273438 C49.3242188,8.6796875 49.3242188,8.6796875 48.2109375,8.06445312 C47.0976562,7.44921875 47.0976562,7.44921875 45.75,7.44921875 C44.2851562,7.44921875 44.2851562,7.44921875 42.9667969,8.06445312 L42.9667969,8.06445312 L42.7075195,8.19365234 C41.8154297,8.66738281 41.8154297,8.66738281 41.1386719,9.44257812 L41.1386719,9.44257812 L41.048,9.55140625 L41.0613556,9.62050629 C41.296875,10.9575195 41.296875,10.9575195 41.296875,12.546875 L41.296875,12.546875 L41.4140625,18.5820312 L41.4164063,19.3484375 C41.4257812,20.8671875 41.4257812,20.8671875 41.4726562,22.2734375 C41.53125,24.03125 41.53125,24.03125 41.7070312,24.5 L41.7070312,24.5 L44.8710938,25.4960938 L44.6953125,28.1914062 L30.8085938,28.1914062 L30.6328125,25.4960938 L33.6210938,24.5 L33.6533801,24.3403619 C33.7466518,23.8345424 33.7466518,23.8345424 33.796875,23.0058594 C33.8554688,22.0390625 33.8554688,22.0390625 33.8847656,20.8671875 C33.9140625,19.6953125 33.9140625,19.6953125 33.9140625,18.640625 L33.9140625,18.640625 L33.8554688,13.1328125 L33.8511963,12.7871501 C33.8041992,10.918457 33.8041992,10.918457 33.2402344,9.76367188 C32.625,8.50390625 32.625,8.50390625 31.5996094,7.9765625 C30.5742188,7.44921875 30.5742188,7.44921875 29.2265625,7.44921875 C27.9375,7.44921875 27.9375,7.44921875 26.6484375,8.12304688 C25.359375,8.796875 25.359375,8.796875 24.4804688,9.96875 L24.4804688,9.96875 L24.4804688,18.5820312 L24.4839844,19.3484375 C24.4980469,20.8671875 24.4980469,20.8671875 24.5683594,22.2734375 C24.65625,24.03125 24.65625,24.03125 24.7734375,24.5 L24.7734375,24.5 L27.9960938,25.4960938 L27.8203125,28.1914062 L13.171875,28.1914062 L12.9960938,25.4960938 L16.6289062,24.5 L16.6419271,24.4403212 C16.6940104,24.171224 16.6940104,24.171224 16.7460938,23.4160156 C16.8046875,22.5664062 16.8046875,22.5664062 16.8632812,21.3359375 C16.921875,20.1054688 16.921875,20.1054688 16.921875,18.640625 L16.921875,18.640625 L16.9804688,14.2460938 L16.978125,13.7855469 C16.96875,12.8808594 16.96875,12.8808594 16.921875,12.1074219 C16.8632812,11.140625 16.8632812,11.140625 16.7460938,10.1738281 C16.6289062,9.20703125 16.6289062,9.20703125 16.453125,8.2109375 L16.453125,8.2109375 L12.703125,7.390625 L12.703125,4.75390625 L23.015625,2.1171875 L24.5976562,3.11328125 L24.2460938,6.51171875 L24.421875,6.5703125 L24.690629,6.23384686 C26.4433594,4.09054129 26.4433594,4.09054129 28.3476562,3.08398438 C30.3984375,2 30.3984375,2 32.625,2 C34.9101562,2 34.9101562,2 36.8730469,3.14257812 L36.8730469,3.14257812 L37.149723,3.31178253 C38.7873585,4.36288265 38.7873585,4.36288265 39.8868882,6.27495217 L39.8868882,6.27495217 L40.015,6.50940625 L40.2971939,6.18885523 C41.8577009,4.4609375 41.8577009,4.4609375 43.5527344,3.43554688 C45.9257812,2 45.9257812,2 48.6796875,2 Z" id="Combined-Shape" fill="#D8D8D8"></path>
                <circle id="Oval" fill="#D8D8D8" cx="61.703125" cy="26.4914062" r="4"></circle>
                <circle id="Oval" fill="#989898" cx="59.703125" cy="24.4914062" r="4"></circle>
                <path d="M51.8797287,26.1914924 L45.5664062,26.1914062 L45.390625,23.4960938 L48.4375,22.5 L48.4697864,22.3403619 C48.563058,21.8345424 48.563058,21.8345424 48.6132812,21.0058594 C48.671875,20.0390625 48.671875,20.0390625 48.7011719,18.8671875 C48.7304687,17.6953125 48.7304687,17.6953125 48.7304687,16.640625 L48.7304687,16.640625 L48.6132812,11.6601562 L48.6094675,11.3141411 C48.5637019,9.27133413 48.5637019,9.27133413 47.96875,8.02734375 C47.3242187,6.6796875 47.3242187,6.6796875 46.2109375,6.06445312 C45.0976562,5.44921875 45.0976562,5.44921875 43.75,5.44921875 C42.2851562,5.44921875 42.2851562,5.44921875 40.9667969,6.06445312 L40.9667969,6.06445312 L40.7075195,6.19365234 C39.8154297,6.66738281 39.8154297,6.66738281 39.1386719,7.44257812 L39.1386719,7.44257812 L39.048,7.55140625 L39.0613556,7.62050629 C39.296875,8.95751953 39.296875,8.95751953 39.296875,10.546875 L39.296875,10.546875 L39.4140625,16.5820312 L39.4164062,17.3484375 C39.4257812,18.8671875 39.4257812,18.8671875 39.4726562,20.2734375 C39.53125,22.03125 39.53125,22.03125 39.7070312,22.5 L39.7070312,22.5 L42.8710937,23.4960938 L42.6953125,26.1914062 L28.8085937,26.1914062 L28.6328125,23.4960938 L31.6210937,22.5 L31.6533801,22.3403619 C31.7466518,21.8345424 31.7466518,21.8345424 31.796875,21.0058594 C31.8554687,20.0390625 31.8554687,20.0390625 31.8847656,18.8671875 C31.9140625,17.6953125 31.9140625,17.6953125 31.9140625,16.640625 L31.9140625,16.640625 L31.8554687,11.1328125 L31.8511963,10.7871501 C31.8041992,8.91845703 31.8041992,8.91845703 31.2402344,7.76367188 C30.625,6.50390625 30.625,6.50390625 29.5996094,5.9765625 C28.5742187,5.44921875 28.5742187,5.44921875 27.2265625,5.44921875 C25.9375,5.44921875 25.9375,5.44921875 24.6484375,6.12304688 C23.359375,6.796875 23.359375,6.796875 22.4804687,7.96875 L22.4804687,7.96875 L22.4804687,16.5820312 L22.4839844,17.3484375 C22.4980469,18.8671875 22.4980469,18.8671875 22.5683594,20.2734375 C22.65625,22.03125 22.65625,22.03125 22.7734375,22.5 L22.7734375,22.5 L25.9960937,23.4960938 L25.8203125,26.1914062 L11.171875,26.1914062 L10.9960937,23.4960938 L14.6289062,22.5 L14.6419271,22.4403212 C14.6940104,22.171224 14.6940104,22.171224 14.7460937,21.4160156 C14.8046875,20.5664062 14.8046875,20.5664062 14.8632812,19.3359375 C14.921875,18.1054688 14.921875,18.1054688 14.921875,16.640625 L14.921875,16.640625 L14.9804687,12.2460938 L14.978125,11.7855469 C14.96875,10.8808594 14.96875,10.8808594 14.921875,10.1074219 C14.8632812,9.140625 14.8632812,9.140625 14.7460937,8.17382812 C14.6289062,7.20703125 14.6289062,7.20703125 14.453125,6.2109375 L14.453125,6.2109375 L10.703125,5.390625 L10.703125,2.75390625 L21.015625,0.1171875 L22.5976562,1.11328125 L22.2460937,4.51171875 L22.421875,4.5703125 L22.690629,4.23384686 C24.4433594,2.09054129 24.4433594,2.09054129 26.3476562,1.08398438 C28.3984375,0 28.3984375,0 30.625,0 C32.9101562,0 32.9101562,0 34.8730469,1.14257812 L34.8730469,1.14257812 L35.149723,1.31178253 C36.7873585,2.36288265 36.7873585,2.36288265 37.8868882,4.27495217 L37.8868882,4.27495217 L38.015,4.50940625 L38.2971939,4.18885523 C39.8577009,2.4609375 39.8577009,2.4609375 41.5527344,1.43554688 C43.9257812,0 43.9257812,0 46.6796875,0 C49.4335937,0 49.4335937,0 51.5722656,1.25976562 C53.7109375,2.51953125 53.7109375,2.51953125 54.8828125,4.86328125 C56.0546875,7.20703125 56.0546875,7.20703125 56.0546875,10.4882812 L56.0546875,10.4882812 L56.171875,16.5820312 L56.1753906,17.3484375 C56.1760077,17.4150848 56.1760077,17.4150848 56.1767332,17.4815154 C55.3184313,17.6920004 55.3184313,17.6920004 54.5283203,18.1513672 C53.0585937,19.0058594 53.0585937,19.0058594 52.2041016,20.4414062 C51.3496094,21.8769531 51.3496094,21.8769531 51.3496094,23.6542969 C51.3496094,24.8767233 51.3496094,24.8767233 51.7659156,25.9250581 L51.8797287,26.1914924 L51.8797287,26.1914924 Z" id="Combined-Shape" fill="#989898"></path>
            </g>
        </g>
    </g>
</svg>