<?xml version="1.0" encoding="UTF-8"?>
<svg width="110px" height="16px" viewBox="0 0 110 16" version="1.1" xmlns="http://www.w3.org/2000/svg" xmlns:xlink="http://www.w3.org/1999/xlink">
    <title>Group 2</title>
    <g id="Page-1" stroke="none" stroke-width="1" fill="none" fill-rule="evenodd">
        <g id="Desktop" transform="translate(-645.000000, -40.000000)" fill-rule="nonzero">
            <g id="Group-2" transform="translate(645.000000, 40.000000)">
                <g id="momentum" fill="#7E7E7E" fill-opacity="0.621940559">
                    <path d="M0.177861428,12.0501118 L0.111163393,11.0274085 L1.48958946,10.649453 C1.50441125,10.5901659 1.51923303,10.4530643 1.53405482,10.2381485 C1.5488766,10.0232326 1.56369839,9.76014587 1.57852017,9.44888837 C1.59334196,9.13763087 1.60075285,8.7967298 1.60075285,8.42618515 L1.62298553,6.75873427 C1.62298553,6.46229855 1.61557464,6.19180096 1.60075285,5.9472415 C1.58593107,5.70268204 1.56369839,5.45812257 1.53405482,5.21356311 C1.50441125,4.96900365 1.46735678,4.72073874 1.42289142,4.46876838 L0,4.15751088 L0,3.15704035 L3.91295142,2.15656982 L4.51323374,2.53452535 L4.37983767,3.8240207 L4.4465357,3.84625338 C4.92083284,3.23856017 5.41736266,2.79761205 5.93612516,2.52340901 C6.45488766,2.24920598 6.99588284,2.11210446 7.55911069,2.11210446 C8.13716033,2.11210446 8.67445006,2.25661687 9.17097988,2.54564169 C9.6675097,2.83466651 10.0714034,3.27190919 10.3826609,3.85736972 C10.6939184,4.44283026 10.8495471,5.19503588 10.8495471,6.11398659 L10.8940125,8.40395248 C10.8940125,8.8930714 10.9014234,9.35995765 10.9162451,9.80461122 C10.9310669,10.2492648 10.9607105,10.5308787 11.0051759,10.649453 L12.2057405,11.0274085 L12.1390425,12.0501118 L6.86989766,12.0501118 L6.80319962,11.0274085 L7.93706623,10.649453 C7.9667098,10.5160569 7.98894248,10.3270792 8.00376426,10.0825197 C8.01858605,9.83796024 8.02970239,9.56746265 8.03711328,9.27102694 C8.04452417,8.97459122 8.04822962,8.6929773 8.04822962,8.42618515 L8.02599694,6.33631337 C8.02599694,5.80272909 7.94818257,5.37660275 7.79255382,5.05793436 C7.63692507,4.73926597 7.42942007,4.51323374 7.17003882,4.37983767 C6.91065757,4.2464416 6.61051641,4.17974356 6.26961534,4.17974356 C5.94353605,4.17974356 5.61745677,4.26496883 5.29137749,4.43541936 C4.9652982,4.6058699 4.69109517,4.83931302 4.46876838,5.13574874 L4.46876838,8.40395248 C4.46876838,8.8930714 4.47988472,9.35995765 4.5021174,9.80461122 C4.52435008,10.2492648 4.5502882,10.5308787 4.57993177,10.649453 L5.80272909,11.0274085 L5.73603106,12.0501118 L0.177861428,12.0501118 Z M13.2284437,12.0501118 L13.1617457,11.0274085 L14.317845,10.649453 C14.3474885,10.5160569 14.3697212,10.3270792 14.384543,10.0825197 C14.3993648,9.83796024 14.4104811,9.56746265 14.417892,9.27102694 C14.4253029,8.97459122 14.4290084,8.6929773 14.4290084,8.42618515 L14.384543,6.53640748 C14.384543,5.95835784 14.3030232,5.49888248 14.1399835,5.15798141 C13.9769439,4.81708034 13.7546171,4.56881543 13.4730032,4.41318668 C13.1913892,4.25755793 12.8801317,4.17974356 12.5392307,4.17974356 C12.168686,4.17974356 11.8166686,4.25755793 11.4831784,4.41318668 C11.1496883,4.56881543 10.8717798,4.80225856 10.649453,5.11351606 L10.0047053,4.26867427 C10.5382896,3.55722856 11.1052229,3.01993883 11.7055052,2.65680508 C12.3057876,2.29367133 12.9542407,2.11210446 13.6508646,2.11210446 C14.3474885,2.11210446 14.9662981,2.27143865 15.5072933,2.59010705 C16.0482884,2.90877544 16.4670039,3.36454535 16.7634396,3.95741677 C17.0598753,4.5502882 17.2080932,5.26173391 17.2080932,6.09175391 L17.2525585,8.40395248 C17.2525585,8.8930714 17.2636749,9.35995765 17.2859075,9.80461122 C17.3081402,10.2492648 17.3340783,10.5308787 17.3637219,10.649453 L18.742148,11.0274085 L18.6754499,12.0501118 L13.2284437,12.0501118 Z" id="Shape"></path>
                    <path d="M24.727185,12.2279732 C23.68966,12.2279732 22.7781202,12.0167627 21.9925656,11.5943418 C21.2070109,11.171921 20.5919068,10.5864604 20.1472533,9.83796024 C19.7025997,9.08946006 19.4802729,8.23350194 19.4802729,7.27008587 C19.4802729,6.17327373 19.7322433,5.23950124 20.236184,4.46876838 C20.7401247,3.69803553 21.3996942,3.11257499 22.2148924,2.71238678 C23.0300906,2.31219856 23.897165,2.11210446 24.8161158,2.11210446 C25.7943536,2.11210446 26.6577226,2.31960946 27.4062228,2.73461946 C28.154723,3.14962946 28.7401835,3.73138454 29.1626044,4.47988472 C29.5850253,5.2283849 29.7962357,6.08434302 29.7962357,7.04775909 C29.7962357,8.02599694 29.5702035,8.90418774 29.118139,9.68233149 C28.6660746,10.4604752 28.0546759,11.0792848 27.2839431,11.5387601 C26.5132102,11.9982355 25.6609575,12.2279732 24.727185,12.2279732 Z M24.9495118,10.8050818 C25.3200565,10.8050818 25.6350194,10.6865075 25.8944007,10.4493589 C26.1537819,10.2122103 26.353876,9.86389836 26.494683,9.40442301 C26.6354899,8.94494765 26.7058934,8.39654158 26.7058934,7.7592048 C26.7058934,6.48453123 26.5020939,5.44700623 26.0944948,4.64662981 C25.6868957,3.84625338 25.142195,3.44606517 24.4603929,3.44606517 C23.897165,3.44606517 23.4525115,3.73138454 23.1264322,4.30202329 C22.8003529,4.87266204 22.6373133,5.64710034 22.6373133,6.6253382 C22.6373133,7.41089284 22.7373603,8.12233855 22.9374544,8.75967533 C23.1375485,9.39701212 23.4117516,9.89724738 23.7600635,10.2603811 C24.1083755,10.6235149 24.5048583,10.8050818 24.9495118,10.8050818 Z" id="Shape"></path>
                    <path d="M30.7344548,12.0501118 L30.6677567,11.0274085 L32.0461828,10.649453 C32.0610046,10.5901659 32.0758264,10.4530643 32.0906482,10.2381485 C32.1054699,10.0232326 32.1202917,9.76014587 32.1351135,9.44888837 C32.1499353,9.13763087 32.1573462,8.7967298 32.1573462,8.42618515 L32.1795789,6.75873427 C32.1795789,6.46229855 32.172168,6.19180096 32.1573462,5.9472415 C32.1425244,5.70268204 32.1202917,5.45812257 32.0906482,5.21356311 C32.0610046,4.96900365 32.0239501,4.72073874 31.9794848,4.46876838 L30.5565933,4.15751088 L30.5565933,3.15704035 L34.4695448,2.15656982 L35.0698271,2.53452535 L34.936431,3.8240207 L35.003129,3.84625338 C35.4774262,3.23856017 35.973956,2.79761205 36.4927185,2.52340901 C37.011481,2.24920598 37.5524762,2.11210446 38.115704,2.11210446 C38.6937537,2.11210446 39.2310434,2.25661687 39.7275732,2.54564169 C40.224103,2.83466651 40.6279967,3.27190919 40.9392542,3.85736972 C41.2505117,4.44283026 41.4061405,5.19503588 41.4061405,6.11398659 L41.4506058,8.40395248 C41.4506058,8.8930714 41.4580167,9.35995765 41.4728385,9.80461122 C41.4876603,10.2492648 41.5173038,10.5308787 41.5617692,10.649453 L42.7623338,11.0274085 L42.6956358,12.0501118 L37.426491,12.0501118 L37.359793,11.0274085 L38.4936596,10.649453 C38.5233031,10.5160569 38.5455358,10.3270792 38.5603576,10.0825197 C38.5751794,9.83796024 38.5862957,9.56746265 38.5937066,9.27102694 C38.6011175,8.97459122 38.604823,8.6929773 38.604823,8.42618515 L38.5825903,6.33631337 C38.5825903,5.80272909 38.5047759,5.37660275 38.3491472,5.05793436 C38.1935184,4.73926597 37.9860134,4.51323374 37.7266322,4.37983767 C37.4672509,4.2464416 37.1671098,4.17974356 36.8262087,4.17974356 C36.5001294,4.17974356 36.1740501,4.26496883 35.8479708,4.43541936 C35.5218915,4.6058699 35.2476885,4.83931302 35.0253617,5.13574874 L35.0253617,8.40395248 C35.0253617,8.8930714 35.0364781,9.35995765 35.0587107,9.80461122 C35.0809434,10.2492648 35.1068815,10.5308787 35.1365251,10.649453 L36.3593224,11.0274085 L36.2926244,12.0501118 L30.7344548,12.0501118 Z M43.7850371,12.0501118 L43.718339,11.0274085 L44.8744383,10.649453 C44.9040819,10.5160569 44.9263146,10.3270792 44.9411363,10.0825197 C44.9559581,9.83796024 44.9670745,9.56746265 44.9744854,9.27102694 C44.9818962,8.97459122 44.9856017,8.6929773 44.9856017,8.42618515 L44.9411363,6.53640748 C44.9411363,5.95835784 44.8596165,5.49888248 44.6965769,5.15798141 C44.5335372,4.81708034 44.3112104,4.56881543 44.0295965,4.41318668 C43.7479826,4.25755793 43.4367251,4.17974356 43.095824,4.17974356 C42.7252794,4.17974356 42.373262,4.25755793 42.0397718,4.41318668 C41.7062816,4.56881543 41.4283731,4.80225856 41.2060463,5.11351606 L40.5612987,4.26867427 C41.094883,3.55722856 41.6618163,3.01993883 42.2620986,2.65680508 C42.8623809,2.29367133 43.510834,2.11210446 44.2074579,2.11210446 C44.9040819,2.11210446 45.5228914,2.27143865 46.0638866,2.59010705 C46.6048818,2.90877544 47.0235972,3.36454535 47.3200329,3.95741677 C47.6164687,4.5502882 47.7646865,5.26173391 47.7646865,6.09175391 L47.8091519,8.40395248 C47.8091519,8.8930714 47.8202682,9.35995765 47.8425009,9.80461122 C47.8647336,10.2492648 47.8906717,10.5308787 47.9203153,10.649453 L49.2987413,11.0274085 L49.2320433,12.0501118 L43.7850371,12.0501118 Z" id="Shape"></path>
                    <path d="M55.0169862,12.2279732 C54.0535702,12.2279732 53.197612,12.0130573 52.4491119,11.5832255 C51.7006117,11.1533937 51.1151512,10.5679332 50.6927303,9.8268439 C50.2703094,9.08575462 50.0590989,8.24832373 50.0590989,7.31455123 C50.0590989,6.27702623 50.2962475,5.36919186 50.7705446,4.59104811 C51.2448418,3.81290436 51.8636513,3.20150571 52.6269733,2.75685214 C53.3902953,2.31219856 54.2091989,2.09728267 55.0836843,2.11210446 C56.3880014,2.11210446 57.3958828,2.51599812 58.1073285,3.32378544 C58.8187743,4.13157276 59.1744971,5.18021409 59.1744971,6.46970945 L59.1744971,7.00329373 L52.6380896,7.00329373 L52.6380896,5.84719445 L56.9956946,5.84719445 L56.6622044,6.38077873 L56.6622044,5.62486766 C56.6622044,4.92824374 56.5065757,4.37242677 56.1953182,3.95741677 C55.8840607,3.54240678 55.4542289,3.33490178 54.9058228,3.33490178 C54.5352782,3.33490178 54.201788,3.43865428 53.9053523,3.64615928 C53.6089166,3.85366427 53.3754735,4.16862722 53.2050229,4.59104811 C53.0345724,5.013469 52.9493471,5.54334784 52.9493471,6.18068463 L52.9493471,6.64757087 C52.9493471,7.68509587 53.2272556,8.52252676 53.7830726,9.15986355 C54.3388895,9.79720033 55.0836843,10.1158687 56.0174568,10.1158687 C56.5213975,10.1158687 56.9808728,10.0232326 57.3958828,9.83796024 C57.8108928,9.65268792 58.211081,9.33772497 58.5964475,8.8930714 L59.2856605,9.5155864 C58.8706505,10.4048935 58.28519,11.0792848 57.5292789,11.5387601 C56.7733678,11.9982355 55.9359369,12.2279732 55.0169862,12.2279732 Z" id="Path"></path>
                    <path d="M60.0015528,12.0501118 L59.9348547,11.0274085 L61.3132808,10.649453 C61.3281026,10.5901659 61.3429244,10.4567698 61.3577461,10.2492648 C61.3725679,10.0417598 61.3873897,9.7786731 61.4022115,9.46000471 C61.4170333,9.14133631 61.4244442,8.7967298 61.4244442,8.42618515 L61.4466769,6.73650159 C61.4466769,6.27702623 61.4318551,5.87683802 61.4022115,5.53593695 C61.3725679,5.19503588 61.3206917,4.83931302 61.2465828,4.46876838 L59.8236913,4.15751088 L59.8236913,3.15704035 L63.7366427,2.15656982 L64.3369251,2.53452535 L64.203529,3.84625338 L64.270227,3.86848606 C64.7297024,3.27561463 65.2373485,2.83466651 65.7931655,2.54564169 C66.3489825,2.25661687 66.9381485,2.11210446 67.5606635,2.11210446 C68.1980002,2.11210446 68.7649335,2.26773321 69.2614634,2.57899071 C69.7579932,2.89024821 70.1544759,3.34601812 70.4509117,3.94630044 C70.7473474,4.54658275 70.8955652,5.26914481 70.8955652,6.11398659 L70.8955652,8.40395248 C70.8955652,8.90789319 70.9029761,9.37848488 70.9177979,9.81572756 C70.9326197,10.2529702 70.9622633,10.5308787 71.0067286,10.649453 L72.3851547,11.0274085 L72.3184567,12.0501118 L66.7380543,12.0501118 L66.6713563,11.0274085 L67.938619,10.649453 C67.9682626,10.5160569 67.9904952,10.3270792 68.005317,10.0825197 C68.0201388,9.83796024 68.0312551,9.56746265 68.038666,9.27102694 C68.0460769,8.97459122 68.0497824,8.6929773 68.0497824,8.42618515 L68.0497824,6.55864016 C68.0497824,5.9954123 67.9645571,5.5396424 67.7941066,5.19133043 C67.623656,4.84301847 67.4013293,4.58734267 67.1271262,4.42430302 C66.8529232,4.26126338 66.5379602,4.17974356 66.1822374,4.17974356 C65.8116927,4.17974356 65.4670862,4.26126338 65.1484178,4.42430302 C64.8297494,4.58734267 64.5444301,4.82449124 64.2924597,5.13574874 L64.2924597,8.40395248 C64.2924597,8.90789319 64.303576,9.37848488 64.3258087,9.81572756 C64.3480414,10.2529702 64.3739795,10.5308787 64.4036231,10.649453 L65.7598165,11.0274085 L65.6931185,12.0501118 L60.0015528,12.0501118 Z" id="Path"></path>
                    <path d="M80.6601576,10.1825668 C80.4378308,10.8199035 80.0339372,11.3275497 79.4484766,11.7055052 C78.8630161,12.0834608 78.2071521,12.2724385 77.4808846,12.2724385 C76.4581814,12.2724385 75.6170451,11.9722974 74.9574756,11.3720151 C74.2979061,10.7717327 73.9681214,9.87130926 73.9681214,8.67074462 L74.0348194,3.71285731 L72.4785319,3.71285731 L72.4785319,3.02364428 L76.28032,0 L76.969533,0 L76.9250676,3.13480767 L76.8806023,8.40395248 C76.8806023,9.02646747 77.0288201,9.47482649 77.3252559,9.74902953 C77.6216916,10.0232326 78.0367016,10.1603341 78.5702858,10.1603341 C78.8518998,10.1603341 79.1261028,10.1047524 79.392895,9.99358899 C79.6596871,9.8824256 79.8894248,9.73791319 80.082108,9.56005176 L80.6601576,10.1825668 Z M75.791201,3.71285731 L75.791201,2.31219856 L80.0376426,2.31219856 L80.0376426,3.71285731 L75.791201,3.71285731 Z" id="Shape"></path>
                    <path d="M90.4025174,10.4938243 L91.8031761,10.8495471 L91.8031761,11.5832255 L88.9129279,12.2946712 L88.5794377,12.0056464 L88.6016704,10.6049876 L88.5349724,10.582755 C88.1051406,11.1904482 87.6641924,11.6165745 87.212128,11.861134 C86.7600635,12.1056934 86.27465,12.2279732 85.7558875,12.2279732 C84.7628279,12.2279732 83.9328079,11.9204211 83.2658275,11.305317 C82.5988472,10.6902129 82.265357,9.76755676 82.265357,8.53734855 L82.265357,6.6253382 C82.265357,6.2103282 82.2542407,5.80643454 82.232008,5.41365722 C82.2097753,5.0208799 82.1838372,4.62439713 82.1541936,4.22420892 L80.6423715,3.91295142 L80.6423715,3.17927303 L83.6660158,2.35666392 L84.066204,2.71238678 C84.0365604,3.17186213 84.0143277,3.66098106 83.9995059,4.17974356 C83.9846842,4.69850606 83.9772733,5.23950124 83.9772733,5.80272909 L83.9550406,8.24832373 C83.9550406,9.16727444 84.1699565,9.82313845 84.5997883,10.2159158 C85.02962,10.6086931 85.5780261,10.8050818 86.2450065,10.8050818 C86.6451947,10.8050818 87.0527938,10.7013293 87.4678038,10.4938243 C87.8828138,10.2863193 88.2459475,9.9305964 88.557205,9.42665569 L88.557205,6.84766498 C88.557205,6.5215857 88.5534996,6.19921186 88.5460887,5.88054347 C88.5386778,5.56187507 88.5275615,5.25802847 88.5127397,4.96900365 C88.4979179,4.67997883 88.4756852,4.43171392 88.4460416,4.22420892 L86.8230561,3.91295142 L86.8230561,3.17927303 L89.9578638,2.35666392 L90.291354,2.66792142 C90.2765322,3.08293142 90.2654158,3.45347606 90.2580049,3.77955535 C90.250594,4.10563463 90.2468886,4.42800847 90.2468886,4.74667686 C90.2468886,5.06534525 90.2468886,5.42477356 90.2468886,5.82496177 L90.2468886,7.40348194 C90.2468886,8.21868016 90.2654158,8.87454417 90.3024703,9.37107399 C90.3395248,9.86760381 90.3728738,10.2418539 90.4025174,10.4938243 Z" id="Path"></path>
                    <path d="M92.7858605,12.0501118 L92.7413951,11.2497353 L94.1198212,10.9162451 C94.134643,10.8124926 94.1457593,10.6790966 94.1531702,10.5160569 C94.1605811,10.3530173 94.1716974,10.1158687 94.1865192,9.80461122 C94.201341,9.49335372 94.2087519,9.07093283 94.2087519,8.53734855 L94.2309846,6.80319962 C94.2458064,6.49194212 94.2421009,6.17327373 94.2198683,5.84719445 C94.1976356,5.52111516 94.1716974,5.21356311 94.1420539,4.92453829 C94.1124103,4.63551347 94.0827667,4.40207034 94.0531232,4.22420892 L92.6302317,3.91295142 L92.6302317,3.17927303 L95.6094107,2.35666392 L95.9873662,2.71238678 L95.8762028,3.91295142 L95.9429008,3.9351841 C96.4023762,3.35713445 96.8803788,2.94212446 97.3769086,2.6901541 C97.8734384,2.43818374 98.3810846,2.31219856 98.8998471,2.31219856 C99.4186096,2.31219856 99.9225503,2.45300553 100.411669,2.73461946 C100.900788,3.01623338 101.304682,3.44606517 101.62335,4.02411481 C101.942019,4.60216445 102.101353,5.34325373 102.101353,6.24738266 L102.123585,8.60404658 C102.123585,9.13763087 102.134702,9.61563345 102.156934,10.0380543 C102.179167,10.4604752 102.212516,10.7532055 102.256982,10.9162451 L103.590942,11.2497353 L103.524244,12.0501118 L99.1888719,12.0501118 L99.1221739,11.2497353 L100.344971,10.9162451 C100.359793,10.7976709 100.374615,10.649453 100.389437,10.4715916 C100.404258,10.2937301 100.415375,10.0676979 100.422786,9.79349488 C100.430196,9.51929185 100.433902,9.17468533 100.433902,8.75967533 L100.411669,6.3140807 C100.411669,5.67674391 100.311622,5.16539231 100.111528,4.78002588 C99.9114339,4.39465945 99.6483473,4.11304552 99.322268,3.9351841 C98.9961887,3.75732267 98.6478767,3.66839195 98.2773321,3.66839195 C97.8178567,3.66839195 97.3880249,3.77955535 96.9878367,4.00188213 C96.5876485,4.22420892 96.2319257,4.57252088 95.9206682,5.04681802 L95.9206682,8.3817198 C95.9206682,9.06352194 95.9317845,9.61563345 95.9540172,10.0380543 C95.9762499,10.4604752 96.002188,10.7532055 96.0318315,10.9162451 L97.3435596,11.2497353 L97.2768615,12.0501118 L92.7858605,12.0501118 Z M105.325091,12.0501118 L105.258393,11.2497353 L106.525656,10.9162451 C106.540478,10.7976709 106.551594,10.649453 106.559005,10.4715916 C106.566416,10.2937301 106.577532,10.0676979 106.592354,9.79349488 C106.607176,9.51929185 106.614587,9.17468533 106.614587,8.75967533 L106.614587,6.33631337 C106.614587,5.68415481 106.503423,5.16539231 106.281096,4.78002588 C106.05877,4.39465945 105.780861,4.11304552 105.447371,3.9351841 C105.113881,3.75732267 104.776685,3.66839195 104.435784,3.66839195 C103.931843,3.66839195 103.464957,3.79437713 103.035125,4.04634749 C102.605293,4.29831784 102.219927,4.68368427 101.879026,5.20244677 L101.456605,4.37983767 C101.975368,3.66839195 102.527479,3.14592401 103.11294,2.81243383 C103.6984,2.47894365 104.31721,2.31219856 104.969368,2.31219856 C105.591883,2.31219856 106.155111,2.46041642 106.659052,2.75685214 C107.162993,3.05328785 107.563181,3.48311963 107.859617,4.04634749 C108.156052,4.60957534 108.30427,5.29137749 108.30427,6.09175391 L108.30427,8.60404658 C108.30427,9.13763087 108.315386,9.61563345 108.337619,10.0380543 C108.359852,10.4604752 108.38579,10.7532055 108.415433,10.9162451 L109.79386,11.2497353 L109.749394,12.0501118 L105.325091,12.0501118 Z" id="Shape"></path>
                </g>
                <g id="." transform="translate(77.755088, 9.151629)" fill="#6BBB8D" stroke="#FFFFFF" stroke-width="1.7">
                    <path d="M2.45053523,-0.85 C3.38992525,-0.85 4.17982949,-0.528181222 4.82465108,0.104916337 C5.47621188,0.744630581 5.80377014,1.52600274 5.80377014,2.45053523 C5.80377014,3.35824571 5.4760115,4.12900629 4.81895877,4.7621662 C4.17327429,5.38437124 3.3933717,5.69837078 2.47688507,5.69837078 C1.56039845,5.69837078 0.780495855,5.38437124 0.134811378,4.7621662 C-0.522241351,4.12900629 -0.85,3.35824571 -0.85,2.45053523 C-0.85,1.83271419 -0.69769328,1.27573255 -0.401025937,0.777331414 C-0.107014258,0.283391793 0.292189691,-0.111358945 0.798040227,-0.405458094 C1.30741145,-0.701604152 1.85818494,-0.85 2.45053523,-0.85 Z" id="Path"></path>
                </g>
            </g>
        </g>
    </g>
</svg>